# xmcd
#
# Track frame offsets:
#	182
#	19240
#	35830
#	52155
#	69832
#	88420
#	102252
#	120652
#	134287
#	150052
#	165007
#	182200
#	201045
#	223862
#
# Disc length: 3233
#
# Revision: 1
# Processed by: cddbd v1.5.1PL0 Copyright (c) Steve Scherf et al.
# Submitted via: VisiTrax 2.9.6.190 - For more info visit www.synapsa.com
# Normalized: r0:DSETVAR1
#
DISCID=be0c9f0e
DTITLE=Various Artist - Country Cares for Kids
DYEAR=1997
DGENRE=Christmas Music
TTITLE0=Various Artist - Make a Miracle
TTITLE1=Clint Black - Christmas For Every Boy And Girl
TTITLE2=Martina McBride - O Holy Night
TTITLE3=Ray Vega - Take A Walk Through Bethlehem
TTITLE4=Travis Tritt - Loving Time Of Year
TTITLE5=Blackhawk - We Three Kings (Star Of Wonder)
TTITLE6=Mindy McCready - Let's Talk About Love
TTITLE7=Brian White - When You Wish Upon A Star
TTITLE8=Lonestar - I will Be Home For Christmas
TTITLE9=Sammy Kershaw wih daughter - Christmas Time's A Comin'
TTITLE10=John Berry - The Christmas Song
TTITLE11=Lorrie Morgan - Up On Santa Claus Mountain
TTITLE12=Bob Carlisle - Butterfly Kisses
TTITLE13=Alabama - Angels Among Us
EXTD=
EXTT0=
EXTT1=
EXTT2=
EXTT3=
EXTT4=
EXTT5=
EXTT6=
EXTT7=
EXTT8=
EXTT9=
EXTT10=
EXTT11=
EXTT12=
EXTT13=
PLAYORDER=
